<svg xmlns="http://www.w3.org/2000/svg" width="266.941" height="136.769" viewBox="0 0 266.941 136.769">
  <g id="Group_254" data-name="Group 254" transform="translate(0 0)">
    <path id="Path_1034" data-name="Path 1034" d="M122.634,612.757c4.827,3.477,11.083,3.652,17.129,3.225.844-.06,1.683-.129,2.513-.2l.017,0,.118-.01.513-.048-.04.077-.126.238.136-.237c.013-.024.028-.048.041-.071,1.566-2.726,3.12-5.552,3.516-8.664.41-3.231-.742-6.889-3.585-8.477a5.738,5.738,0,0,0-1.177-.493c-.17-.052-.342-.094-.517-.131a6.15,6.15,0,0,0-7.152,7.995c-2.411-2.472-1.961-6.482-1.129-9.834s1.842-7.081.147-10.091a6.655,6.655,0,0,0-4.458-3.134c-.057-.012-.114-.025-.171-.035a8.975,8.975,0,0,0-6.448,1.13c-3.555,2.24-5.38,6.487-5.973,10.648C115.033,601.331,117.146,608.8,122.634,612.757Z" transform="translate(-109.671 -479.395)" fill="#f2f2f2"/>
    <path id="Path_1035" data-name="Path 1035" d="M147.456,602.514a15.258,15.258,0,0,0,1.053,4.3,13.249,13.249,0,0,0,2.057,3.36,16.975,16.975,0,0,0,6.52,4.7,24.432,24.432,0,0,0,5.94,1.6c.844-.06,1.683-.129,2.513-.2l.017,0,.118-.01.513-.048-.04.077-.126.238.136-.237c.013-.024.028-.048.041-.071a13.385,13.385,0,0,1-1.246-17.634c-.17-.052-.342-.094-.517-.131a14.119,14.119,0,0,0-1.288,2.134,13.837,13.837,0,0,0-1.194,8.608,14.147,14.147,0,0,0,3.584,7.056c-.161-.011-.324-.024-.483-.039a24.8,24.8,0,0,1-8.768-2.234,15.791,15.791,0,0,1-5.916-4.854,14.272,14.272,0,0,1-2.514-7.833,33.054,33.054,0,0,1,.938-8.949,37.561,37.561,0,0,1,3.156-8.6.27.27,0,0,0-.107-.357.23.23,0,0,0-.171-.035.2.2,0,0,0-.132.113c-.173.337-.342.674-.5,1.015a37.985,37.985,0,0,0-2.974,8.919A30.581,30.581,0,0,0,147.456,602.514Z" transform="translate(-132.935 -479.884)" fill="#fff"/>
    <path id="Path_1036" data-name="Path 1036" d="M966.991,561.734c-7.283,5.247-16.722,5.51-25.845,4.866-1.274-.09-2.539-.2-3.792-.309-.008,0-.018,0-.025,0-.06-.006-.121-.011-.178-.015l-.774-.073.06.116.19.358-.2-.357c-.02-.036-.043-.072-.063-.108-2.363-4.113-4.708-8.377-5.305-13.073-.618-4.875,1.119-10.394,5.409-12.79a8.652,8.652,0,0,1,1.776-.744c.257-.078.517-.141.78-.2a9.279,9.279,0,0,1,10.791,12.063c3.637-3.73,2.959-9.78,1.7-14.837s-2.779-10.684-.222-15.225a10.04,10.04,0,0,1,6.726-4.728c.086-.019.172-.037.258-.053a13.542,13.542,0,0,1,9.729,1.7c5.364,3.38,8.118,9.788,9.012,16.066C978.459,544.495,975.271,555.768,966.991,561.734Z" transform="translate(-710.412 -430.515)" fill="#f2f2f2"/>
    <path id="Path_1037" data-name="Path 1037" d="M979.843,546.279a23.021,23.021,0,0,1-1.589,6.487,19.989,19.989,0,0,1-3.1,5.07,25.613,25.613,0,0,1-9.838,7.094,36.865,36.865,0,0,1-8.963,2.408c-1.274-.09-2.539-.2-3.792-.309l-.025,0c-.06-.006-.121-.011-.178-.015l-.774-.073.061.115.19.358-.2-.357c-.02-.036-.043-.072-.062-.108a20.2,20.2,0,0,0,1.88-26.607c.257-.078.517-.141.78-.2a21.307,21.307,0,0,1,1.944,3.219,20.878,20.878,0,0,1,1.8,12.988A21.346,21.346,0,0,1,952.56,567c.243-.017.489-.037.729-.059a37.427,37.427,0,0,0,13.229-3.37,23.825,23.825,0,0,0,8.926-7.324,21.534,21.534,0,0,0,3.793-11.818,49.876,49.876,0,0,0-1.416-13.5,56.675,56.675,0,0,0-4.762-12.972.407.407,0,0,1,.162-.538.346.346,0,0,1,.258-.053.3.3,0,0,1,.2.171c.26.508.516,1.017.762,1.531a57.32,57.32,0,0,1,4.487,13.458A46.143,46.143,0,0,1,979.843,546.279Z" transform="translate(-725.616 -431.253)" fill="#fff"/>
    <path id="Path_1038" data-name="Path 1038" d="M500.289,269.923H391.381a.863.863,0,0,1-.861-.861V190.889a.863.863,0,0,1,.861-.861H500.288a.863.863,0,0,1,.861.861v78.173A.863.863,0,0,1,500.289,269.923ZM391.381,190.554a.336.336,0,0,0-.335.335v78.172a.336.336,0,0,0,.335.335H500.288a.336.336,0,0,0,.335-.335V190.889a.336.336,0,0,0-.335-.335Z" transform="translate(-312.152 -190.028)" fill="#3f3d56"/>
    <path id="Path_1039" data-name="Path 1039" d="M512.911,211.634v55.554a1.4,1.4,0,0,1-1.4,1.4H417.206a1.185,1.185,0,0,1-.2-.016,1.4,1.4,0,0,1-1.2-1.383V211.634a1.4,1.4,0,0,1,1.4-1.4h94.307a1.4,1.4,0,0,1,1.4,1.4Z" transform="translate(-330.788 -204.92)" fill="#f2f2f2"/>
    <circle id="Ellipse_75" data-name="Ellipse 75" cx="12.27" cy="12.27" r="12.27" transform="translate(96.521 13.806)" fill="#ff6584"/>
    <path id="Path_1040" data-name="Path 1040" d="M483.187,291.868h-60.2a1.227,1.227,0,0,1-.225-.018l28.47-49.313a1.993,1.993,0,0,1,3.47,0l19.107,33.093.915,1.583Z" transform="translate(-335.917 -227.979)" fill="#3f3d56"/>
    <path id="Path_1041" data-name="Path 1041" d="M502.287,197.389H481.735l10.089-14.655.726-1.056.363-.528.915,1.584Z" transform="translate(-355.017 -133.5)" opacity="0.2" style="isolation: isolate"/>
    <path id="Path_1042" data-name="Path 1042" d="M634.014,332.586H581.95l10.089-14.655.726-1.056,13.147-19.1a2.66,2.66,0,0,1,3.949-.236,2.385,2.385,0,0,1,.189.236Z" transform="translate(-453.228 -268.697)" fill="#3f3d56"/>
    <circle id="Ellipse_76" data-name="Ellipse 76" cx="1.67" cy="1.67" r="1.67" transform="translate(80.2 75.167)" fill="#e01a70"/>
    <circle id="Ellipse_77" data-name="Ellipse 77" cx="1.67" cy="1.67" r="1.67" transform="translate(80.2 1.514)" fill="#e01a70"/>
    <circle id="Ellipse_78" data-name="Ellipse 78" cx="1.67" cy="1.67" r="1.67" transform="translate(184.103 1.514)" fill="#e01a70"/>
    <circle id="Ellipse_79" data-name="Ellipse 79" cx="1.67" cy="1.67" r="1.67" transform="translate(184.103 75.167)" fill="#e01a70"/>
    <path id="Path_1043" data-name="Path 1043" d="M220.778,471.916H224l1.534-12.439h-4.76Z" transform="translate(-162.703 -338.614)" fill="#a0616a"/>
    <path id="Path_1044" data-name="Path 1044" d="M0,0H10.135V3.916H3.916A3.916,3.916,0,0,1,0,0Z" transform="translate(67.519 136.297) rotate(179.997)" fill="#2f2e41"/>
    <path id="Path_1045" data-name="Path 1045" d="M174.778,471.916H178l1.534-12.439h-4.76Z" transform="translate(-128.803 -338.614)" fill="#a0616a"/>
    <path id="Path_1046" data-name="Path 1046" d="M0,0H10.135V3.916H3.916A3.916,3.916,0,0,1,0,0Z" transform="translate(55.419 136.297) rotate(179.997)" fill="#2f2e41"/>
    <path id="Path_1047" data-name="Path 1047" d="M256.563,459.487a2.826,2.826,0,0,0,.542-4.3l2.123-30.134-6.117.593-.168,29.51a2.841,2.841,0,0,0,3.619,4.329Z" transform="translate(-210.194 -363.232)" fill="#a0616a"/>
    <path id="Path_1048" data-name="Path 1048" d="M276.155,565.233a1.188,1.188,0,0,1-1.175-1.043l-1.875-15.678a.921.921,0,0,0-1.824-.034L268.92,563.49a1.178,1.178,0,0,1-1.169,1h-3.827a1.184,1.184,0,0,1-1.184-1.193l1.827-33.284a1.177,1.177,0,0,1,1.014-1.163l14.2-2.062a1.184,1.184,0,0,1,1.354,1.18l-.248,35.921a1.183,1.183,0,0,1-1.127,1.174l-3.55.169Z" transform="translate(-217.984 -438.196)" fill="#2f2e41"/>
    <path id="Path_1049" data-name="Path 1049" d="M263.49,438.03a11.86,11.86,0,0,1-4.005-.713,1.175,1.175,0,0,1-.768-1.053c-.122-2.719-.839-16.715-2.926-25.252a8.727,8.727,0,0,1,3.324-9.094q.168-.121.343-.238a8.5,8.5,0,0,1,8.258-.647,8.738,8.738,0,0,1,5.093,6.828l3.4,25.266a1.178,1.178,0,0,1-.245.895,1.162,1.162,0,0,1-.8.44,17.867,17.867,0,0,0-6.755,2.314A10.029,10.029,0,0,1,263.49,438.03Z" transform="translate(-212.682 -344.956)" fill="#e01a70"/>
    <path id="Path_1050" data-name="Path 1050" d="M251.792,428.828l-5.6-1.518a1.185,1.185,0,0,1-.833-1.452l1.969-7.261a3.261,3.261,0,0,1,6.4,1.033l-.448,8.122a1.184,1.184,0,0,1-1.492,1.077Z" transform="translate(-205.145 -356.698)" fill="#e01a70"/>
    <circle id="Ellipse_80" data-name="Ellipse 80" cx="6.461" cy="6.461" r="6.461" transform="translate(46.421 39.724)" fill="#a0616a"/>
    <path id="Path_1051" data-name="Path 1051" d="M334.9,407.892a2.769,2.769,0,0,0-.063.431l-11.3,6.519-2.747-1.581-2.928,3.833,5.876,4.188,12.891-10.17a2.761,2.761,0,1,0-1.73-3.22Z" transform="translate(-258.609 -349.014)" fill="#a0616a"/>
    <path id="Path_1052" data-name="Path 1052" d="M304.706,417.558l-4.867,3.159a1.185,1.185,0,0,1-1.637-.349l-4.1-6.311a3.261,3.261,0,0,1,5.042-4.082l5.751,5.752a1.184,1.184,0,0,1-.193,1.83Z" transform="translate(-240.712 -351.416)" fill="#e01a70"/>
    <path id="Path_1053" data-name="Path 1053" d="M267.6,344.606a2.087,2.087,0,0,0,3.6-1.159,2.117,2.117,0,0,0,0-.409,9.483,9.483,0,0,1-.422-2.3,1.207,1.207,0,0,1,.221-.565c.96-1.286,3.215.575,4.121-.589.556-.714-.1-1.838.329-2.636.563-1.053,2.23-.534,3.276-1.11,1.163-.642,1.094-2.427.328-3.512a5.525,5.525,0,0,0-4.189-2.132,11.236,11.236,0,0,0-4.733.924,9.458,9.458,0,0,0-4.472,3.1,7.57,7.57,0,0,0-.765,6.445A12.149,12.149,0,0,0,267.6,344.606Z" transform="translate(-219.294 -293.31)" fill="#2f2e41"/>
    <path id="Path_1054" data-name="Path 1054" d="M193.079,708.5H92.858a.263.263,0,1,1,0-.526h100.22a.263.263,0,1,1,0,.526Z" transform="translate(-92.595 -571.729)" fill="#3f3d56"/>
    <path id="Path_1055" data-name="Path 1055" d="M819.079,708.5H718.858a.263.263,0,1,1,0-.526h100.22a.263.263,0,1,1,0,.526Z" transform="translate(-553.929 -571.729)" fill="#3f3d56"/>
    <path id="Path_1056" data-name="Path 1056" d="M919.6,454.235a2.72,2.72,0,0,1-.973-4.056l-2.034-19.889h4.4l1.617,19.421a2.735,2.735,0,0,1-3.006,4.525Z" transform="translate(-699.843 -367.09)" fill="#ffb8b8"/>
    <circle id="Ellipse_81" data-name="Ellipse 81" cx="6.22" cy="6.22" r="6.22" transform="translate(209.499 39.784)" fill="#ffb8b8"/>
    <path id="Path_1057" data-name="Path 1057" d="M878.645,416.109l-9.283-2.027a1.142,1.142,0,0,1-.895-1.055,37.281,37.281,0,0,1,1.411-12.432,7.533,7.533,0,0,1,9.68-4.8h0a7.537,7.537,0,0,1,4.28,10.406,62.9,62.9,0,0,0-3.853,9.1,1.138,1.138,0,0,1-1.341.809Z" transform="translate(-664.341 -341.353)" fill="#e01a70"/>
    <path id="Path_1058" data-name="Path 1058" d="M768.621,475.276h-3.1L764.04,463.3h4.582Z" transform="translate(-563.063 -341.432)" fill="#ffb8b8"/>
    <path id="Path_1059" data-name="Path 1059" d="M750.662,505.453h5.987v3.77h-9.757A3.77,3.77,0,0,1,750.662,505.453Z" transform="translate(-550.426 -372.496)" fill="#2f2e41"/>
    <path id="Path_1060" data-name="Path 1060" d="M872.063,464.13l-2.72,1.5-7.064-9.782,4.016-2.207Z" transform="translate(-635.461 -334.31)" fill="#ffb8b8"/>
    <path id="Path_1061" data-name="Path 1061" d="M3.77,0H9.757V3.77H0A3.77,3.77,0,0,1,3.77,0Z" transform="translate(228.209 133.423) rotate(-28.801)" fill="#2f2e41"/>
    <path id="Path_1062" data-name="Path 1062" d="M854.855,515.691l-4.779-.368a1.136,1.136,0,0,1-1.047-1.026c-.681-7.1-3.67-43.108,4.413-54.192l.023-.031.036-.013c.072-.026,7.281-2.6,11.416,2.114a1.139,1.139,0,0,1,.219,1.108l-.158.473a.882.882,0,0,0,.126.8c1.148,1.552,5.011,7.527,6.529,19.278a.879.879,0,0,0,.057.218L882.9,511.593a1.14,1.14,0,0,1-.65,1.494l-3.527,1.344a1.146,1.146,0,0,1-1.4-.515l-16.181-29.358a.633.633,0,0,0-1.182.224L856.072,514.7a1.139,1.139,0,0,1-1.129.993C854.914,515.695,854.885,515.694,854.855,515.691Z" transform="translate(-649.24 -388.497)" fill="#2f2e41"/>
    <path id="Path_1063" data-name="Path 1063" d="M806.056,386.636a2.656,2.656,0,0,1,.061.415L817,393.327l2.644-1.522,2.819,3.69-4.419,3.15a2.026,2.026,0,0,1-2.431-.059l-11.217-8.85a2.658,2.658,0,1,1,1.665-3.1Z" transform="translate(-614.517 -333.408)" fill="#ffb8b8"/>
    <path id="Path_1064" data-name="Path 1064" d="M862.843,403.606a1.138,1.138,0,0,1,.56-.766l4.992-2.791a3.165,3.165,0,0,1,3.881,5l-3.98,4.133a1.139,1.139,0,0,1-1.723-.094l-3.516-4.557A1.138,1.138,0,0,1,862.843,403.606Z" transform="translate(-660.216 -344.313)" fill="#e01a70"/>
    <path id="Path_1065" data-name="Path 1065" d="M910.2,419.285a1.139,1.139,0,0,1-.422-.85l-.179-5.717a3.165,3.165,0,1,1,6.225-1.143l1.836,5.436a1.14,1.14,0,0,1-.877,1.486l-5.664,1.023A1.138,1.138,0,0,1,910.2,419.285Z" transform="translate(-694.651 -351.387)" fill="#6c63ff"/>
    <path id="Path_1066" data-name="Path 1066" d="M890.72,337.978c-1.6,1.094-3.7,2.219-5.33,1.054a2.971,2.971,0,0,1-.975-3.425c.782-2.236,2.93-3.22,4.984-3.974,2.67-.981,5.578-1.761,8.334-1.059s5.193,3.371,4.7,6.172c-.4,2.252-2.525,4.126-2.223,6.394s2.87,3.483,5.136,3.891,4.8.539,6.43,2.166c2.077,2.076,1.559,5.787-.4,7.979s-4.9,3.186-7.763,3.861c-3.787.9-7.883,1.365-11.48-.12s-6.4-5.484-5.354-9.233a12.882,12.882,0,0,1,2.479-4.225,11.773,11.773,0,0,0,2.4-4.264,4.433,4.433,0,0,0-.8-3.878A1.124,1.124,0,0,1,890.7,338Z" transform="translate(-675.986 -293.405)" fill="#2f2e41"/>
  </g>
</svg>
