<svg id="Group_252" data-name="Group 252" xmlns="http://www.w3.org/2000/svg" width="266.941" height="210.507" viewBox="0 0 266.941 210.507">
  <path id="Path_946" data-name="Path 946" d="M328.24,215.646a3.452,3.452,0,0,0-2.932,4.406l-9.98,7.131,5.949,2.289,8.565-7.123a3.47,3.47,0,0,0-1.6-6.7Z" transform="translate(-279.57 -190.818)" fill="#ffb8b8"/>
  <path id="Path_947" data-name="Path 947" d="M276.384,236.762,264,249.218a10.262,10.262,0,0,1-6.322,2.962l-15.3,1.4a4.215,4.215,0,0,1-3.129-.983,4.117,4.117,0,0,1,1.817-7.191l15.627-3.327,14.227-10.487a1.3,1.3,0,0,1,1.294.01l3.869,3.169a1.271,1.271,0,0,1,.641,1.334A1.242,1.242,0,0,1,276.384,236.762Z" transform="translate(-228.642 -201.192)" fill="#2f2e41"/>
  <path id="Path_948" data-name="Path 948" d="M564.089,185.621a4.164,4.164,0,0,0-2.306-4.187l-77.039-37.653a4.153,4.153,0,0,0-5.556,1.905v0l-28.894,59.118a4.161,4.161,0,0,0,1.908,5.557l77.039,37.653a4.161,4.161,0,0,0,5.557-1.908l28.894-59.118A4.123,4.123,0,0,0,564.089,185.621Z" transform="translate(-367.933 -143.357)" fill="#f2f2f2"/>
  <path id="Path_949" data-name="Path 949" d="M450.8,370.948H350.835a4.752,4.752,0,0,1-4.747-4.747V230.5a4.752,4.752,0,0,1,4.747-4.747H450.8a4.752,4.752,0,0,1,4.747,4.747V366.2a4.752,4.752,0,0,1-4.747,4.747Z" transform="translate(-299.772 -197.471)" fill="#fff"/>
  <circle id="Ellipse_58" data-name="Ellipse 58" cx="6.522" cy="6.522" r="6.522" transform="translate(71.055 55.704)" fill="#e6e6e6"/>
  <path id="Path_950" data-name="Path 950" d="M408.2,364.468a18.686,18.686,0,0,0,2.883,1.329l.176.061a18.8,18.8,0,0,0,6.249,1.061c.428,0,.841-.015,1.226-.044a18.584,18.584,0,0,0,2.788-.384c.5-.11,1.006-.242,1.492-.391.118-.035.226-.069.346-.106a18.941,18.941,0,0,0,5.51-2.855,8.5,8.5,0,0,0-.439-.738,9.413,9.413,0,0,0-7.889-4.258h-3.432a9.444,9.444,0,0,0-8.589,5.52,8.575,8.575,0,0,0-.321.805Z" transform="translate(-340.565 -284.419)" fill="#e6e6e6"/>
  <path id="Path_951" data-name="Path 951" d="M442.438,381.674a1.242,1.242,0,0,0-.611.214,18.257,18.257,0,0,0,2.736-.38Z" transform="translate(-362.649 -299.765)" fill="#2f2e41"/>
  <path id="Path_952" data-name="Path 952" d="M401.82,273.083a19.073,19.073,0,0,0-9.515,35.6,18.751,18.751,0,0,0,3.031,1.411l.178.062a18.967,18.967,0,0,0,6.305,1.071c.415,0,.831-.014,1.239-.045a18.758,18.758,0,0,0,2.811-.388c.518-.113,1.026-.247,1.507-.395.117-.034.226-.069.347-.106a19.075,19.075,0,0,0-5.9-37.211Zm11.066,33.36a18.082,18.082,0,0,1-5.475,2.887l-.326.1c-.457.141-.937.264-1.431.371a17.587,17.587,0,0,1-2.66.371c-.388.027-.783.041-1.174.041a18.036,18.036,0,0,1-5.969-1.013l-.168-.058a17.588,17.588,0,0,1-3.007-1.414,18.047,18.047,0,1,1,20.21-1.287Z" transform="translate(-323.848 -228.555)" fill="#ccc"/>
  <path id="Path_953" data-name="Path 953" d="M364.676,494.922" transform="translate(-311.98 -374.249)" fill="#f2f2f2"/>
  <path id="Path_954" data-name="Path 954" d="M450.8,370.948H350.835a4.752,4.752,0,0,1-4.747-4.747V230.5a4.752,4.752,0,0,1,4.747-4.747H450.8a4.752,4.752,0,0,1,4.747,4.747V366.2a4.752,4.752,0,0,1-4.747,4.747ZM350.835,226.311a4.193,4.193,0,0,0-4.188,4.188V366.2a4.193,4.193,0,0,0,4.188,4.188H450.8a4.193,4.193,0,0,0,4.188-4.188V230.5a4.193,4.193,0,0,0-4.188-4.188Z" transform="translate(-299.772 -197.471)" fill="#ccc"/>
  <path id="Path_955" data-name="Path 955" d="M536.362,319.87H508.076a2.238,2.238,0,1,1,0-4.475h28.286a2.238,2.238,0,0,1,0,4.475Z" transform="translate(-404.689 -256.344)" fill="#e6e6e6"/>
  <path id="Path_956" data-name="Path 956" d="M545.592,341.873H508.076a2.238,2.238,0,1,1,0-4.475h37.516a2.238,2.238,0,1,1,0,4.475Z" transform="translate(-404.689 -270.794)" fill="#e6e6e6"/>
  <path id="Path_957" data-name="Path 957" d="M455.569,426.262H385.121a2.238,2.238,0,1,1,0-4.475h70.448a2.238,2.238,0,0,1,0,4.475Z" transform="translate(-323.937 -326.217)" fill="#e6e6e6"/>
  <path id="Path_958" data-name="Path 958" d="M464.8,448.264H385.121a2.238,2.238,0,1,1,0-4.475H464.8a2.238,2.238,0,0,1,0,4.475Z" transform="translate(-323.937 -340.667)" fill="#e6e6e6"/>
  <path id="Path_959" data-name="Path 959" d="M455.569,498.835H385.121a2.238,2.238,0,1,1,0-4.475h70.448a2.238,2.238,0,0,1,0,4.475Z" transform="translate(-323.937 -373.88)" fill="#e6e6e6"/>
  <path id="Path_960" data-name="Path 960" d="M464.8,520.837H385.121a2.238,2.238,0,1,1,0-4.475H464.8a2.238,2.238,0,0,1,0,4.475Z" transform="translate(-323.937 -388.33)" fill="#e6e6e6"/>
  <path id="Path_961" data-name="Path 961" d="M455.569,571.408H385.121a2.238,2.238,0,1,1,0-4.475h70.448a2.238,2.238,0,0,1,0,4.475Z" transform="translate(-323.937 -421.542)" fill="#e6e6e6"/>
  <path id="Path_962" data-name="Path 962" d="M464.8,593.41H385.121a2.238,2.238,0,1,1,0-4.475H464.8a2.238,2.238,0,0,1,0,4.475Z" transform="translate(-323.937 -435.993)" fill="#e6e6e6"/>
  <path id="Path_963" data-name="Path 963" d="M554.089,298.621a4.164,4.164,0,0,0-2.306-4.187l-77.039-37.653a4.153,4.153,0,0,0-5.556,1.905v0l-28.894,59.118a4.161,4.161,0,0,0,1.908,5.557l77.039,37.653a4.161,4.161,0,0,0,5.557-1.908l28.894-59.118A4.122,4.122,0,0,0,554.089,298.621Z" transform="translate(-361.365 -217.571)" fill="#fff"/>
  <path id="Path_964" data-name="Path 964" d="M554.089,298.621a4.164,4.164,0,0,0-2.306-4.187l-77.039-37.653a4.153,4.153,0,0,0-5.556,1.905v0l-28.894,59.118a4.161,4.161,0,0,0,1.908,5.557l77.039,37.653a4.161,4.161,0,0,0,5.557-1.908l28.894-59.118A4.122,4.122,0,0,0,554.089,298.621Zm-29.731,60.274a3.67,3.67,0,0,1-4.9,1.684l-77.038-37.653a3.67,3.67,0,0,1-1.684-4.9L469.627,258.9a3.67,3.67,0,0,1,4.9-1.684l77.039,37.653a3.67,3.67,0,0,1,1.684,4.9Z" transform="translate(-361.365 -217.571)" fill="#3f3d56"/>
  <path id="Path_965" data-name="Path 965" d="M571.26,318.6,551.084,359.88a1.156,1.156,0,0,1-1.547.532h0L479.46,326.161a.976.976,0,0,1-.143-.084,1.156,1.156,0,0,1-.388-1.463L499.1,283.333a1.156,1.156,0,0,1,1.547-.532h0l70.077,34.251a1.156,1.156,0,0,1,.532,1.547h0Z" transform="translate(-386.938 -234.861)" fill="#e6e6e6"/>
  <circle id="Ellipse_59" data-name="Ellipse 59" cx="10.149" cy="10.149" r="10.149" transform="translate(112.65 61.345)" fill="#e01a70"/>
  <path id="Path_966" data-name="Path 966" d="M526.31,381.324l-44.729-21.862a1.012,1.012,0,0,1-.161-.095l39.065-26.3a1.649,1.649,0,0,1,2.578,1.26l2.179,31.53.105,1.509Z" transform="translate(-388.652 -267.758)" fill="#3f3d56"/>
  <path id="Path_967" data-name="Path 967" d="M371.83,301.259,356.558,293.8l12.819-7.225.923-.52.461-.261.105,1.509Z" transform="translate(-234.171 -187.693)" opacity="0.2" style="isolation: isolate"/>
  <path id="Path_968" data-name="Path 968" d="M610.736,440.223l-38.687-18.909,12.819-7.225.923-.521,16.7-9.416a2.2,2.2,0,0,1,3.02,1.259,1.977,1.977,0,0,1,.055.244Z" transform="translate(-448.173 -314.485)" fill="#3f3d56"/>
  <path id="Path_969" data-name="Path 969" d="M125.842,345.763h4.208l2-16.231h-6.211Z" transform="translate(-82.647 -216.421)" fill="#ffb8b8"/>
  <path id="Path_970" data-name="Path 970" d="M333.868,516.174h8.288a5.281,5.281,0,0,1,5.281,5.281v.171H333.868Z" transform="translate(-291.746 -388.206)" fill="#2f2e41"/>
  <path id="Path_971" data-name="Path 971" d="M30.551,336.838l4.36.853,5.364-16.411-6.434-1.259Z" transform="translate(-20.065 -210.175)" fill="#ffb8b8"/>
  <path id="Path_972" data-name="Path 972" d="M237.16,507.59l8.586,1.68h0a5.575,5.575,0,0,1,4.4,6.542l-.035.178-14.058-2.75Z" transform="translate(-227.507 -382.569)" fill="#2f2e41"/>
  <path id="Path_973" data-name="Path 973" d="M326.449,336.606a3.452,3.452,0,0,0-4.852-2.114l-8.771-8.574-1.21,6.258,8.515,7.183a3.47,3.47,0,0,0,6.319-2.753Z" transform="translate(-277.132 -263.255)" fill="#ffb8b8"/>
  <circle id="Ellipse_60" data-name="Ellipse 60" cx="8.43" cy="8.43" r="8.43" transform="translate(8.344 12.358)" fill="#ffb8b8"/>
  <path id="Path_974" data-name="Path 974" d="M240.349,192.944c.448.2,1.365-3.373.954-4.087-.611-1.062-.575-1.054-.981-1.756a2.036,2.036,0,0,1,.029-2.282,1.2,1.2,0,0,1,1.981.239c-.154-1.472,1.3-2.655,2.744-2.987s2.963-.126,4.413-.422c1.683-.343,3.434-1.754,2.762-3.6a2.607,2.607,0,0,0-.508-.835,6.429,6.429,0,0,0-2.922-1.6,19.351,19.351,0,0,0-6.8-1.425,9.885,9.885,0,0,0-8.734,6.388,8.978,8.978,0,0,0-.372,1.382,9.265,9.265,0,0,0,5.751,10.176Z" transform="translate(-225.344 -163.596)" fill="#2f2e41"/>
  <path id="Path_975" data-name="Path 975" d="M232.54,277.177a1.289,1.289,0,0,1-.61-1.276l-3.8-18.845-3.856-14.463h0a7.234,7.234,0,0,1,3.622-8.269l2.549-2.412,5.561,2.4L238.644,237a15.112,15.112,0,0,1,7.892,9.357l4.239,14.5,9.788,14.563a1.3,1.3,0,0,1-.127,1.606C259.075,278.491,232.54,277.177,232.54,277.177Z" transform="translate(-219.605 -201.517)" fill="#2f2e41"/>
  <path id="Path_976" data-name="Path 976" d="M280.171,291.3l-14.434-10a10.262,10.262,0,0,1-4.025-5.7l-4.057-14.814a4.215,4.215,0,0,1,.419-3.253,4.117,4.117,0,0,1,7.4.527l6.017,14.8,12.82,12.167a1.3,1.3,0,0,1,.217,1.275l-2.442,4.365a1.271,1.271,0,0,1-1.2.865A1.242,1.242,0,0,1,280.171,291.3Z" transform="translate(-241.592 -216.981)" fill="#2f2e41"/>
  <path id="Path_977" data-name="Path 977" d="M235.746,407.886a1.285,1.285,0,0,1-.154-1.175l6.677-24.274.494-23.785,22.478-1.542.109-.007,6.77,12.271a31.571,31.571,0,0,1,3.81,12.438l2.231,24.449a1.276,1.276,0,0,1-1.116,1.4l-6.778.645a1.261,1.261,0,0,1-1.4-1.068l-2.752-24.845-9.9-16.732-3.324,17.615L246,407.6a1.276,1.276,0,0,1-1.187.833l-8.032,0A1.249,1.249,0,0,1,235.746,407.886Z" transform="translate(-227.152 -283.736)" fill="#2f2e41"/>
  <path id="Path_978" data-name="Path 978" d="M391.858,516.316H222.479a11.34,11.34,0,0,1-11.327-11.327V411.97a11.34,11.34,0,0,1,11.327-11.327h20.767a11.3,11.3,0,0,1,7.618,2.945l22.521,16.081a7.957,7.957,0,0,0,5.375,2.083H392.91a11.327,11.327,0,0,1,11.326,11.493l-1.052,71.91a11.375,11.375,0,0,1-11.326,11.161Z" transform="translate(-211.152 -312.331)" fill="#fff"/>
  <path id="Path_979" data-name="Path 979" d="M403.488,519.841H236.616a5.471,5.471,0,0,1-5.464-5.464v-94.54a5.47,5.47,0,0,1,5.464-5.464,4.839,4.839,0,0,1,4.833,4.833v88.65a5.127,5.127,0,0,0,5.121,5.121H402.925a3.476,3.476,0,0,1,3.4,2.6,3.336,3.336,0,0,1-1.478,3.839,2.607,2.607,0,0,1-1.362.422Z" transform="translate(-224.287 -321.348)" fill="#f2f2f2"/>
  <path id="Path_980" data-name="Path 980" d="M493.45,579.549l-.439-.439a.47.47,0,0,1-.022-.665l.022-.022,3.855-3.858a.47.47,0,0,1,.665-.022l.022.022,3.855,3.855a.477.477,0,0,1,.012.675l-.012.012-.439.439a.477.477,0,0,1-.675.012l-.012-.012-2.279-2.4v5.7a.474.474,0,0,1-.47.477h-.638a.477.477,0,0,1-.477-.477h0V577.15l-2.279,2.4a.477.477,0,0,1-.675.008Z" transform="translate(-396.166 -426.457)" fill="#e01a70"/>
  <path id="Path_981" data-name="Path 981" d="M488.568,562.67a7.823,7.823,0,1,1-7.823,7.823h0a7.829,7.829,0,0,1,7.823-7.823m0-1.03a8.852,8.852,0,1,0,8.852,8.852h0A8.852,8.852,0,0,0,488.568,561.64Z" transform="translate(-387.533 -418.066)" fill="#3f3d56"/>
  <path id="Path_982" data-name="Path 982" d="M391.858,516.316H222.479a11.34,11.34,0,0,1-11.327-11.327V411.97a11.34,11.34,0,0,1,11.327-11.327h20.767a11.3,11.3,0,0,1,7.618,2.945l22.521,16.081a7.957,7.957,0,0,0,5.375,2.083H392.91a11.327,11.327,0,0,1,11.326,11.493l-1.052,71.91a11.375,11.375,0,0,1-11.326,11.161ZM222.479,401.329a10.653,10.653,0,0,0-10.641,10.641v93.019a10.653,10.653,0,0,0,10.641,10.641H391.858A10.685,10.685,0,0,0,402.5,505.145l1.052-71.91a10.641,10.641,0,0,0-10.639-10.8H278.76a8.642,8.642,0,0,1-5.822-2.249l-22.521-16.081a10.617,10.617,0,0,0-7.171-2.779Z" transform="translate(-211.152 -312.331)" fill="#3f3d56"/>
  <path id="Path_983" data-name="Path 983" d="M557.716,568.5h-4.208l-1.315-16.231h5.524Z" transform="translate(-362.655 -362.708)" fill="#ffb8b8"/>
  <path id="Path_984" data-name="Path 984" d="M756.6,744.369H743.032V744.2a5.281,5.281,0,0,1,5.281-5.281H756.6Z" transform="translate(-560.467 -534.493)" fill="#2f2e41"/>
  <path id="Path_985" data-name="Path 985" d="M693.4,568.5h-4.208l-2-16.231H693.4Z" transform="translate(-451.317 -362.708)" fill="#ffb8b8"/>
  <path id="Path_986" data-name="Path 986" d="M893.6,744.369H880.032V744.2a5.281,5.281,0,0,1,5.281-5.281H893.6Z" transform="translate(-650.442 -534.493)" fill="#2f2e41"/>
  <path id="Path_987" data-name="Path 987" d="M866.447,564.234a3.876,3.876,0,0,0,.1-4.909,3.2,3.2,0,0,0-.368-.375l3.17-11.7L864.066,549l-2.2,10.844a3.9,3.9,0,0,0,.349,4.273,2.711,2.711,0,0,0,4.231.116Z" transform="translate(-638.198 -408.615)" fill="#ffb8b8"/>
  <path id="Path_988" data-name="Path 988" d="M867.388,499.561a1.333,1.333,0,0,1-.2-.015l-2.753-.415a1.491,1.491,0,0,1-1.034-.716,1.923,1.923,0,0,1-.241-1.329L866.6,477.9l-2.329-12.323a4.975,4.975,0,0,1,2.695-5.572,3.682,3.682,0,0,1,3.6.461,4.914,4.914,0,0,1,1.93,3.5l1.648,15.713-.02.068-5.305,18.621A1.536,1.536,0,0,1,867.388,499.561Z" transform="translate(-639.342 -351.14)" fill="#e01a70"/>
  <circle id="Ellipse_61" data-name="Ellipse 61" cx="8.43" cy="8.43" r="8.43" transform="translate(218.802 85.218)" fill="#ffb8b8"/>
  <path id="Path_989" data-name="Path 989" d="M831.813,475.044a1.707,1.707,0,0,1-.614-.114L817.874,469.8a1.71,1.71,0,0,1-1.085-1.829l.535-4.014a9.1,9.1,0,0,1,2.145-8.1l.324-.357,3.942-7.189a4.208,4.208,0,0,1,5.743-1.65l6.962,3.89a4.2,4.2,0,0,1,1.939,2.343,12.839,12.839,0,0,1-.2,8.648l-4.767,12.393A1.728,1.728,0,0,1,831.813,475.044Z" transform="translate(-608.896 -342.207)" fill="#e01a70"/>
  <path id="Path_990" data-name="Path 990" d="M756.154,583.465l-.018,0a1.716,1.716,0,0,1-1.346-2.08L765,536.746a120.367,120.367,0,0,1,6.9-20.645l4.344-9.9,16.21,7.4,2.315,4.233a41.429,41.429,0,0,1,2.738,14.767l16.471,48.271a1.716,1.716,0,0,1-1.342,2.247l-9.017-.1a1.388,1.388,0,0,1-.258.022,1.705,1.705,0,0,1-1.586-1.076l-18.828-48.8a.345.345,0,0,0-.33-.213.333.333,0,0,0-.31.225l-17.865,49.048a1.708,1.708,0,0,1-1.918,1.1Z" transform="translate(-568.158 -381.654)" fill="#2f2e41"/>
  <path id="Path_991" data-name="Path 991" d="M785.859,542.583a3.452,3.452,0,0,0,1.842-4.962l8.074-9.234-6.316-.861-6.7,8.9a3.47,3.47,0,0,0,3.1,6.156Z" transform="translate(-585.536 -395.662)" fill="#ffb8b8"/>
  <path id="Path_992" data-name="Path 992" d="M797.137,481.1a1.719,1.719,0,0,1-.806-.2l-2.841-1.515a1.716,1.716,0,0,1-.641-2.434l10.495-16.537,1.82-12.479a4.817,4.817,0,1,1,9.447,1.838l-3.757,15.381-12.379,15.31A1.71,1.71,0,0,1,797.137,481.1Z" transform="translate(-593.008 -340.679)" fill="#e01a70"/>
  <path id="Path_993" data-name="Path 993" d="M843.7,388.668c.975-3.2,6.609-4.624,11.292-3.3s8.047,4.805,8.83,8.207c1.734,7.532-7.311,13.644-5.672,21.177,1.084,4.984,7.358,9.7,14.423,10.833a37.993,37.993,0,0,1-24.511-3.693c-4.494-2.421-8.264-6.075-8.207-9.76.035-2.231,1.454-4.2,3.19-5.909s3.814-3.22,5.407-5,2.7-3.91,2.232-6.169-2.827-4.614-6-5.272Z" transform="translate(-624.054 -301.976)" fill="#2f2e41"/>
  <path id="Path_994" data-name="Path 994" d="M736.968,755.329H606.192a.343.343,0,0,1,0-.687H736.968a.343.343,0,0,1,0,.687Z" transform="translate(-470.371 -544.822)" fill="#ccc"/>
</svg>
